<svg xmlns="http://www.w3.org/2000/svg" xmlns:xlink="http://www.w3.org/1999/xlink" width="118" height="118" viewBox="0 0 118 118">
  <defs>
    <filter id="Rectangle_411831" x="0" y="0" width="118" height="118" filterUnits="userSpaceOnUse">
      <feOffset dy="3" input="SourceAlpha"/>
      <feGaussianBlur stdDeviation="3" result="blur"/>
      <feFlood flood-opacity="0.161"/>
      <feComposite operator="in" in2="blur"/>
      <feComposite in="SourceGraphic"/>
    </filter>
    <clipPath id="clip-path">
      <rect id="Rectangle_425778" data-name="Rectangle 425778" width="56.919" height="60.826" fill="none" stroke="#000" stroke-linecap="round" stroke-linejoin="round" stroke-width="1" stroke-dasharray="80 5"/>
    </clipPath>
  </defs>
  <g id="Group_1229051" data-name="Group 1229051" transform="translate(-326.781 -3852)">
    <g transform="matrix(1, 0, 0, 1, 326.78, 3852)" filter="url(#Rectangle_411831)">
      <g id="Rectangle_411831-2" data-name="Rectangle 411831" transform="translate(9 6)" fill="#efb3a6" stroke="#fff" stroke-width="2">
        <path d="M5,0H68a32,32,0,0,1,32,32V95a5,5,0,0,1-5,5H32A32,32,0,0,1,0,68V5A5,5,0,0,1,5,0Z" stroke="none"/>
        <path d="M5,1H68A31,31,0,0,1,99,32V95a4,4,0,0,1-4,4H32A31,31,0,0,1,1,68V5A4,4,0,0,1,5,1Z" fill="none"/>
      </g>
    </g>
    <g id="Group_1229072" data-name="Group 1229072" transform="translate(357.322 3877.587)">
      <g id="Group_1229059" data-name="Group 1229059" clip-path="url(#clip-path)">
        <path id="Path_1495227" data-name="Path 1495227" d="M17.265.087A4.514,4.514,0,0,1,18.678.038a1.884,1.884,0,0,1,1.471,1.287c.458,1.318.2,3.195.2,4.593,0,1.581-.2,13.377.216,13.874a.915.915,0,0,0,.741.351,1.252,1.252,0,0,0,.565-.275c.781-.937.367-11.843.42-14.035a3.411,3.411,0,0,1,.754-2.471,2.145,2.145,0,0,1,1.706-.427,1.549,1.549,0,0,1,1.372,1.209c.986,2.9-.815,14.991.4,16.5.537.152.28.156.8.013,1.626-1.522-.179-10.065,1.293-12.468a1.5,1.5,0,0,1,1-.728,1.75,1.75,0,0,1,1.363.349,1.689,1.689,0,0,1,.561,1.1c.225,1.706.092,16.191-.276,17.146A24.175,24.175,0,0,1,29.3,29.322c-1.265,2.131-5.492,9.471-5.434,11.643a3.263,3.263,0,0,0,1.055,2.4,4.935,4.935,0,0,0,3.825.853l.013,4.222q-1.962-.023-3.925-.013l-14.974.031q.227-3.975.316-7.956c-.812-1.417-2.772-3.42-3.513-4.864C4.2,30.837,2.021,25.031.028,19.962a1.74,1.74,0,0,1,.35-1.255c4.13-4.118,7.319,7.627,9.045,7.27.712-.828.461-5.538.458-6.818l-.023-10.4a19.809,19.809,0,0,1,.177-4.6,1.963,1.963,0,0,1,2.8-1.016,2.158,2.158,0,0,1,1.069,1.2c.942,2.7-.841,14.755,1.173,15.846,1.49-.229,1.007-3.92,1-5.088l-.024-8.2c0-1.5-.051-3.176.066-4.662A2.437,2.437,0,0,1,17.265.087" transform="translate(0 0)" fill="#11ab66" stroke="#000" stroke-linecap="round" stroke-linejoin="round" stroke-width="1" stroke-dasharray="80 5"/>
        <path id="Path_1495228" data-name="Path 1495228" d="M184.267,119.467c6.046.148,12.676.02,18.767,0-.014,1.613-.214,3.218-.261,4.82a61.729,61.729,0,0,0,.641,7.391q.687,7.281,1.088,14.585a47.561,47.561,0,0,1,.121,5.676,1.924,1.924,0,0,1-2.34,1.486c-2.524-1.616-.978-7.608-2.036-10.238-.167-.414-.293-.4-.586-.476a1.637,1.637,0,0,0-.932,1.392,138.324,138.324,0,0,1-.034,13.965c-.406.627-.779,1.213-1.57,1.29-2.731.266-2.311-3.064-2.335-4.808q-.043-3.2-.028-6.4c0-1.29.316-4.081-.648-4.871-.557-.09-.3-.125-.811.107-.582.669-.335,4.04-.334,5.106q.01,4.816-.041,9.632c-.022,1.478.1,3.624-1.477,4.405a1.738,1.738,0,0,1-1.444.047,1.994,1.994,0,0,1-1.07-1.031c-.539-1.349-.3-3.575-.3-5.02,0-1.624.273-12.083-.156-12.844a.9.9,0,0,0-.71-.5.722.722,0,0,0-.755.532,8.96,8.96,0,0,0-.159,2.8c-.006,2.565.259,8.739-.207,11.008a3,3,0,0,1-.757,1.544,1.78,1.78,0,0,1-1.381.517,1.6,1.6,0,0,1-1.541-1.246c-.567-1.6-.288-3.808-.285-5.5l.005-9.07c.006-1.074.221-5.268-.343-5.917l-.291-.015c-1.9,1.073-3.595,6.66-6.674,6.809a2.1,2.1,0,0,1-1.6-.62,1.869,1.869,0,0,1-.491-1.7c.339-1.548,5.792-11.489,6.888-12.85,4.028-5.007,4.274-2.535,4.091-10" transform="translate(-147.755 -101.889)" fill="#11ab66" stroke="#000" stroke-linecap="round" stroke-linejoin="round" stroke-width="1" stroke-dasharray="80 5"/>
        <path id="Path_1495229" data-name="Path 1495229" d="M247.88,90.361q9.464-.039,18.927.048v2.674c-.9-.062-1.905-.076-2.809-.071-5.355.03-10.722-.051-16.076.017Z" transform="translate(-211.407 -77.055)" fill="#11ab66" stroke="#000" stroke-linecap="round" stroke-linejoin="round" stroke-width="1" stroke-dasharray="80 5"/>
        <path id="Path_1495230" data-name="Path 1495230" d="M70.831,340.248l14.272.024-.005,2.372-4.714.019q-7.151.055-14.3,0l-.013-2.385q2.381-.025,4.762-.026" transform="translate(-56.348 -290.184)" fill="#11ab66" stroke="#000" stroke-linecap="round" stroke-linejoin="round" stroke-width="1" stroke-dasharray="80 5"/>
      </g>
    </g>
  </g>
</svg>
